<?xml version="1.0" encoding="UTF-8"?>
<svg id="Layer_1" data-name="Layer 1" xmlns="http://www.w3.org/2000/svg" viewBox="0 0 368.64 201.34">
  <defs>
    <style>
      .cls-1 {
        fill: #587a5a;
      }

      .cls-2 {
        font-family: TrebuchetMS, 'Trebuchet MS';
        font-size: 60px;
      }

      .cls-2, .cls-3, .cls-4 {
        fill: #e4efd2;
      }

      .cls-3 {
        fill-rule: evenodd;
      }
    </style>
  </defs>
  <rect class="cls-1" y="4.56" width="368.64" height="186.15" rx="3.52" ry="3.52"/>
  <path class="cls-3" d="M50.28,30.21H316.9c-6.27,19.12,10.35,41.45,29.76,32.05v73.69c-19.69-9.54-35.86,13.43-29.76,32.04H50.28c6.11-18.61-10.06-41.59-29.76-32.04V62.25c19.43,9.41,36.01-12.98,29.76-32.05h0Zm133.31,21.25c-49.61,0-49.61,95.28,0,95.28s49.61-95.28,0-95.28h0Zm-100.59,26.75c-11.54,0-20.89,9.35-20.89,20.89s9.35,20.89,20.89,20.89,20.89-9.35,20.89-20.89-9.35-20.89-20.89-20.89h0Zm201.18,0c-11.54,0-20.89,9.35-20.89,20.89s9.35,20.89,20.89,20.89,20.89-9.35,20.89-20.89-9.35-20.89-20.89-20.89Z"/>
  <path class="cls-4" d="M201.55,109.29c0,2.37-.42,4.5-1.27,6.41-.83,1.89-2.03,3.54-3.57,4.91-1.54,1.38-3.4,2.48-5.59,3.32-2.17,.82-4.59,1.34-7.23,1.57l-.87,8.85c-.03,.23-.08,.41-.18,.58-.1,.17-.27,.31-.54,.41-.27,.11-.62,.21-1.07,.27-.45,.07-1.03,.11-1.72,.11-.87,0-1.59-.04-2.13-.13-.54-.08-.96-.2-1.26-.35-.3-.16-.51-.35-.59-.59-.1-.25-.13-.54-.07-.83l.87-8.4c-1.19-.17-2.3-.38-3.36-.63-1.04-.27-1.99-.55-2.85-.87-.85-.31-1.59-.63-2.22-.97-.61-.32-1.09-.65-1.4-.96-.32-.32-.55-.79-.68-1.41-.14-.62-.21-1.54-.21-2.75,0-.93,.03-1.71,.08-2.31,.06-.61,.14-1.07,.28-1.41,.14-.33,.31-.55,.52-.68,.21-.13,.45-.18,.72-.18,.37,0,.89,.21,1.57,.62,.69,.41,1.58,.86,2.65,1.37,1.07,.49,2.37,.95,3.91,1.35,1.52,.42,3.33,.62,5.39,.62,3.23,0,5.63-.59,7.2-1.79,1.57-1.2,2.36-2.79,2.36-4.78,0-1.31-.34-2.41-1.02-3.26-.68-.86-1.58-1.61-2.71-2.26-1.13-.65-2.4-1.23-3.82-1.74-1.41-.51-2.86-1.04-4.36-1.64-1.48-.58-2.93-1.24-4.36-2.02-1.42-.78-2.7-1.72-3.82-2.85-1.13-1.13-2.03-2.5-2.71-4.12-.68-1.61-1.02-3.56-1.02-5.84,0-2.07,.35-3.95,1.04-5.65,.68-1.69,1.68-3.17,2.98-4.44,1.28-1.27,2.88-2.3,4.77-3.08,1.89-.79,4.04-1.33,6.43-1.59l.82-8.31c.03-.23,.08-.41,.18-.56,.1-.14,.28-.28,.54-.41,.27-.13,.62-.21,1.06-.27,.44-.06,1.02-.08,1.74-.08,.86,0,1.57,.04,2.13,.13,.56,.08,1,.2,1.3,.35,.31,.16,.49,.35,.58,.59,.08,.25,.13,.54,.13,.83l-.82,7.82c.76,.11,1.58,.25,2.43,.45,.86,.2,1.67,.42,2.4,.68,.75,.27,1.43,.54,2.03,.83,.61,.28,1.03,.55,1.26,.79,.24,.23,.41,.47,.54,.69,.13,.24,.23,.52,.3,.87,.07,.34,.11,.76,.14,1.24,.03,.48,.04,1.03,.04,1.66,0,.86-.01,1.57-.06,2.12-.04,.55-.13,.97-.24,1.26-.1,.3-.23,.48-.37,.58-.14,.1-.3,.14-.49,.14-.35,0-.89-.17-1.57-.54-.69-.35-1.54-.73-2.55-1.16-1-.41-2.16-.79-3.47-1.16-1.3-.35-2.74-.54-4.32-.54-1.43,0-2.65,.14-3.68,.41-1.02,.28-1.83,.66-2.47,1.17-.64,.49-1.1,1.09-1.41,1.78-.3,.68-.45,1.44-.45,2.27,0,1.28,.34,2.38,1.03,3.26,.69,.89,1.61,1.64,2.75,2.27,1.14,.63,2.44,1.21,3.88,1.74,1.45,.52,2.92,1.07,4.43,1.65,1.5,.58,2.98,1.26,4.42,2.02,1.45,.75,2.74,1.69,3.87,2.81,1.13,1.11,2.05,2.47,2.74,4.05,.68,1.58,1.03,3.49,1.03,5.73Z"/>
  <text class="cls-2" transform="translate(20.52 55.36)"><tspan x="0" y="0">1</tspan></text>
  <text class="cls-2" transform="translate(18.18 185.61)"><tspan x="0" y="0">1</tspan></text>
  <text class="cls-2" transform="translate(321.56 51.46)"><tspan x="0" y="0">1</tspan></text>
  <text class="cls-2" transform="translate(320.78 185.61)"><tspan x="0" y="0">1</tspan></text>
</svg>