<?xml version="1.0" encoding="UTF-8"?>
<svg id="Layer_1" data-name="Layer 1" xmlns="http://www.w3.org/2000/svg" viewBox="0 0 368.64 368.64">
  <defs>
    <style>
      .cls-1, .cls-2 {
        fill: #e3b702;
      }

      .cls-3, .cls-4 {
        fill: #77610b;
      }

      .cls-4 {
        font-family: MyriadPro-Regular, 'Myriad Pro';
        font-size: 200px;
      }

      .cls-2 {
        fill-rule: evenodd;
      }

      .cls-5 {
        fill: #fac900;
      }
    </style>
  </defs>
  <circle class="cls-1" cx="184.32" cy="184.32" r="184.32" transform="translate(-76.35 184.32) rotate(-45)"/>
  <circle class="cls-5" cx="184.32" cy="184.32" r="176.94" transform="translate(-76.35 184.32) rotate(-45)"/>
  <path class="cls-2" d="M184.32,7.38c1.54,0,3.08,.02,4.62,.06v26.36h-5.53V7.39c.3,0,.61-.01,.91-.01h0Zm44.92,5.76c1.79,.47,3.56,.97,5.33,1.49l-6.83,25.5-5.34-1.43,6.85-25.56h0Zm42.77,17.47c1.6,.92,3.19,1.86,4.75,2.82l-13.19,22.85-4.79-2.76,13.22-22.9h0Zm36.77,27.96c1.31,1.3,2.6,2.61,3.87,3.95l-18.64,18.64-3.91-3.91,18.68-18.68h0Zm28.33,36.48c.93,1.59,1.84,3.19,2.73,4.81l-22.86,13.2-2.76-4.79,22.9-13.22h0Zm17.91,42.58c.48,1.77,.94,3.56,1.37,5.36l-25.49,6.83-1.43-5.34,25.55-6.85h0Zm6.23,45.77c0,.3,.01,.61,.01,.91,0,1.54-.02,3.08-.06,4.62h-26.36v-5.53h26.41Zm-5.75,45.83c-.47,1.79-.97,3.56-1.49,5.33l-25.5-6.83,1.43-5.34,25.56,6.85h0Zm-17.47,42.77c-.92,1.6-1.86,3.19-2.82,4.75l-22.85-13.19,2.76-4.79,22.9,13.22h0Zm-27.96,36.77c-1.3,1.31-2.61,2.6-3.95,3.87l-18.64-18.64,3.91-3.91,18.68,18.68h0Zm-36.49,28.33c-1.59,.93-3.19,1.85-4.81,2.73l-13.2-22.86,4.79-2.76,13.22,22.9h0Zm-42.58,17.91c-1.78,.48-3.56,.94-5.36,1.37l-6.83-25.49,5.34-1.43,6.85,25.55h0Zm-45.77,6.23c-.3,0-.61,.01-.91,.01-1.54,0-3.08-.02-4.62-.06v-26.36h5.53v26.41h0Zm-45.83-5.75c-1.79-.47-3.56-.97-5.32-1.49l6.83-25.5,5.34,1.43-6.85,25.56h0Zm-42.77-17.47c-1.6-.91-3.18-1.86-4.75-2.82l13.19-22.85,4.79,2.76-13.22,22.9h0Zm-36.77-27.96c-1.31-1.3-2.6-2.61-3.87-3.95l18.64-18.64,3.91,3.91-18.68,18.68h0Zm-28.33-36.48c-.93-1.59-1.85-3.19-2.73-4.81l22.86-13.2,2.76,4.79-22.9,13.22h0Zm-17.91-42.58c-.48-1.78-.94-3.56-1.37-5.36l25.49-6.83,1.43,5.34-25.55,6.85h0Zm-6.23-45.77c0-.3-.01-.61-.01-.91,0-1.54,.02-3.08,.06-4.62h26.36s0,5.53,0,5.53H7.39Zm5.75-45.83c.47-1.79,.97-3.56,1.49-5.32l25.5,6.83-1.43,5.34-25.56-6.85h0Zm17.47-42.77c.92-1.6,1.86-3.19,2.82-4.75l22.85,13.19-2.77,4.79-22.9-13.22h0Zm27.96-36.77c1.3-1.31,2.61-2.6,3.95-3.87l18.64,18.64-3.91,3.91-18.68-18.68h0Zm36.48-28.33c1.59-.93,3.19-1.85,4.81-2.73l13.2,22.86-4.79,2.76-13.22-22.9h0Zm42.58-17.91c1.77-.48,3.56-.94,5.36-1.37l6.83,25.49-5.34,1.43-6.85-25.55Z"/>
  <circle class="cls-1" cx="184.32" cy="184.32" r="152.99" transform="translate(-16.1 17.65) rotate(-5.25)"/>
  <path class="cls-3" d="M240.09,282.21v-19.71c-9.87-1.23-17.88-3.44-24.05-6.62-6.17-3.18-11.52-8.34-16.01-15.41-4.49-7.11-7.11-15.74-7.82-25.95l19.82-3.74c1.53,10.58,4.23,18.36,8.12,23.34,5.53,7.03,12.19,10.92,19.93,11.71v-62.75c-8.12-1.53-16.38-4.67-24.87-9.42-6.28-3.52-11.11-8.38-14.51-14.59s-5.09-13.24-5.09-21.13c0-14.02,4.97-25.39,14.88-34.07,6.66-5.87,16.53-9.42,29.58-10.73v-9.42h11.63v9.42c11.44,1.08,20.57,4.45,27.26,10.06,8.64,7.14,13.8,16.98,15.56,29.47l-20.38,3.07c-1.16-7.74-3.59-13.69-7.29-17.8-3.66-4.11-8.71-6.84-15.15-8.15v56.85c9.91,2.51,16.49,4.45,19.71,5.83,6.13,2.69,11.14,5.98,15,9.84,3.89,3.89,6.88,8.49,8.94,13.8,2.09,5.35,3.14,11.11,3.14,17.32,0,13.69-4.38,25.06-13.05,34.18-8.68,9.16-19.93,14.03-33.73,14.7v19.93h-11.63Zm0-172.67c-7.67,1.16-13.73,4.23-18.14,9.2-4.41,4.97-6.62,10.85-6.62,17.65s1.87,12.34,5.65,16.87c3.78,4.53,10.13,8.15,19.11,10.85v-54.56h0Zm11.63,136.28c7.67-.94,13.99-4.26,19-9.95,5.01-5.68,7.52-12.75,7.52-21.17,0-7.14-1.79-12.9-5.31-17.24-3.55-4.34-10.62-8.23-21.21-11.67v60.03Z"/>
  <text class="cls-4" transform="translate(43.44 251.8)"><tspan x="0" y="0">.5</tspan></text>
</svg>