<?xml version="1.0" encoding="UTF-8"?>
<svg id="Layer_1" data-name="Layer 1" xmlns="http://www.w3.org/2000/svg" viewBox="0 0 1296.01 3183.67">
  <defs>
    <style>
      .cls-1, .cls-2 {
        opacity: .38;
      }

      .cls-1, .cls-3 {
        fill: #fff;
      }

      .cls-4 {
        fill: #e6940e;
      }

      .cls-5 {
        fill: #c8e3fc;
      }

      .cls-6 {
        fill: #ef7700;
      }

      .cls-7 {
        opacity: .19;
      }

      .cls-8 {
        opacity: .1;
      }

      .cls-3 {
        opacity: .2;
      }

      .cls-9 {
        fill: none;
      }

      .cls-10 {
        fill: #f7d02f;
      }

      .cls-11 {
        fill: #e7e51c;
      }

      .cls-12 {
        fill: #f9a600;
      }
    </style>
  </defs>
  <path class="cls-9" d="M0,3183.67H1296.01V0H0V3183.67Zm90.71-547.12s0,0,0,0v-116.14s0,0,0,0v-97.86s0,0,0,0v-44.93s0,0,0,0v-35.35s0,0,0,0v-368.27c0-518.78,265.6-465.85,52.4-847-130.46-233.23,8.51-367.35,136.02-465.43,80.87-62.21,157.14-109.92,157.14-159.23v-19.09h-11.35v-44.26h0s11.35,0,11.35,0v-19.22h-11.35V165.56c0-18.97,15.38-34.34,34.34-34.34h331.58c18.97,0,34.34,15.38,34.34,34.34v254.21h-11.35v19.22h11.35v44.27h-11.35v19.09c0,37.63,44.42,74.33,101.41,117.26h0c6.88,5.18,13.95,10.46,21.14,15.84,1.68,1.26,3.38,2.52,5.07,3.8,.67,.5,1.34,1,2.01,1.51,1.75,1.31,3.5,2.63,5.26,3.95,.63,.47,1.25,.94,1.88,1.42,1.79,1.35,3.59,2.7,5.4,4.07,.58,.44,1.16,.88,1.74,1.32,1.75,1.32,3.5,2.65,5.26,3.99,.62,.47,1.24,.94,1.85,1.41,1.7,1.3,3.41,2.6,5.12,3.92,.33,.25,.66,.5,.99,.76,113.48,87.29,236.03,203.12,169.69,391.92-8.21,23.36-19.3,47.83-33.67,73.51-71.62,128.04-89.21,207.09-80.99,275.29,16.26,134.81,133.39,227.2,133.39,571.71v841.7c0,46.87-18.58,92.59-43.55,132.89-10.3,16.63-21.7,32.33-33.32,46.81-6.43,8.01-12.94,15.65-19.37,22.86-31.43,35.23-79.8,47.46-122.99,34.29-11.34-3.46-22.32-8.66-32.54-15.66l-78.68-53.87c-21.28-14.57-46.87-18.79-70.51-13.42-7.15,1.62-14.11,4.11-20.73,7.47-9.28,4.71-17.87,11.11-25.28,19.15l-42.05,42.05c-25.02,25.03-65.6,25.03-90.62,0l-42.05-42.05c-8.09-8.77-17.58-15.57-27.84-20.38-5.47-2.56-11.15-4.56-16.96-5.96-23.98-5.8-50.09-1.67-71.73,13.15l-48.07,32.91h0l-30.61,20.96c-10.08,6.9-20.9,12.06-32.07,15.52-43.31,13.41-91.91,1.21-123.46-34.15-5.58-6.26-11.22-12.84-16.81-19.71-13.2-16.19-26.18-33.98-37.7-52.93-24.05-39.57-41.73-84.2-41.73-129.92v-179.15Z"/>
  <path class="cls-5" d="M964.87,656.9c1.7,1.3,3.41,2.6,5.12,3.92-1.71-1.31-3.41-2.62-5.12-3.92Z"/>
  <rect class="cls-5" x="631.58" y="356.22" width="83.74" height="16.18"/>
  <path class="cls-5" d="M624.48,502.34c0,49.31-76.27,97.02-157.14,159.23h449.64c-.54-13.9-1.11-27.88-1.73-41.97-56.99-42.92-101.41-79.63-101.41-117.26v-19.09h-189.35v19.09Z"/>
  <rect class="cls-5" x="728.38" y="356.22" width="83.74" height="16.18"/>
  <path class="cls-5" d="M624.48,438.99h189.35v-19.22h-189.35v19.22Z"/>
  <path class="cls-5" d="M943.47,640.74c1.75,1.31,3.5,2.63,5.26,3.95-1.76-1.32-3.51-2.64-5.26-3.95Z"/>
  <path class="cls-5" d="M957.75,651.49c1.75,1.32,3.5,2.65,5.26,3.99-1.76-1.34-3.51-2.67-5.26-3.99Z"/>
  <path class="cls-5" d="M950.62,646.11c1.79,1.35,3.59,2.7,5.4,4.07-1.8-1.36-3.6-2.72-5.4-4.07Z"/>
  <path class="cls-5" d="M936.38,635.44c1.68,1.26,3.38,2.52,5.07,3.8-1.7-1.27-3.39-2.54-5.07-3.8Z"/>
  <path class="cls-4" d="M828.94,2983.02c-21.28-14.57-46.87-18.79-70.51-13.42,23.64-5.37,49.24-1.15,70.51,13.42l78.68,53.87c10.22,7,21.2,12.2,32.54,15.66-11.34-3.46-22.32-8.66-32.54-15.66l-78.68-53.87Z"/>
  <path class="cls-4" d="M1026,1402.29c-8.22-68.2,9.36-147.25,80.99-275.29,14.36-25.68,25.46-50.15,33.67-73.51-8.21,23.36-19.3,47.83-33.67,73.51-71.63,128.04-89.21,207.1-80.99,275.29Z"/>
  <path class="cls-4" d="M1115.84,2948.59c-10.3,16.63-21.7,32.33-33.32,46.81,11.63-14.48,23.02-30.18,33.32-46.81Z"/>
  <path class="cls-4" d="M916.98,661.57H467.34c-127.52,98.08-266.49,232.2-136.02,465.43,213.21,381.15-52.4,328.21-52.4,847v11.75H804.66c86.04-296.71,135.8-720.96,112.32-1324.17Zm-39.6,403.41c11.79,0,21.35,9.56,21.35,21.35s-9.56,21.35-21.35,21.35-21.35-9.56-21.35-21.35,9.56-21.35,21.35-21.35Zm-46.83-106.51c6.35,0,11.49,5.15,11.49,11.49s-5.15,11.49-11.49,11.49-11.49-5.15-11.49-11.49,5.15-11.49,11.49-11.49Zm25.48,428.33c0,23.8-19.29,43.09-43.09,43.09s-43.09-19.29-43.09-43.09,19.29-43.09,43.09-43.09,43.09,19.29,43.09,43.09Zm-123.81-168.07c-33.7,0-61.01-27.32-61.01-61.01s27.32-61.01,61.01-61.01,61.01,27.32,61.01,61.01-27.32,61.01-61.01,61.01Zm35.5-466.47c19.61,0,35.5,15.9,35.5,35.5s-15.9,35.5-35.5,35.5-35.5-15.9-35.5-35.5,15.9-35.5,35.5-35.5Zm-56.54,231.14c13.48,0,24.4,10.93,24.4,24.4s-10.93,24.4-24.4,24.4-24.4-10.93-24.4-24.4,10.93-24.4,24.4-24.4Zm-185.87-231.14c6.35,0,11.49,5.15,11.49,11.49s-5.15,11.49-11.49,11.49-11.49-5.15-11.49-11.49,5.15-11.49,11.49-11.49Zm-11.49,384.54c24,0,43.45,19.46,43.45,43.45s-19.46,43.45-43.45,43.45-43.45-19.46-43.45-43.45,19.46-43.45,43.45-43.45Zm33.28,232.71c0,18.38-14.9,33.28-33.28,33.28s-33.28-14.9-33.28-33.28,14.9-33.28,33.28-33.28,33.28,14.9,33.28,33.28Zm-75.9,424.25c-6.88,0-12.46-5.58-12.46-12.46s5.58-12.46,12.46-12.46,12.46,5.58,12.46,12.46-5.58,12.46-12.46,12.46Zm12.46-221.65c-27.53,0-49.85-22.32-49.85-49.85s22.32-49.85,49.85-49.85,49.85,22.32,49.85,49.85-22.32,49.85-49.85,49.85Zm63.43,325.04c-13.79,0-24.97-11.18-24.97-24.97s11.18-24.97,24.97-24.97,24.97,11.18,24.97,24.97-11.18,24.97-24.97,24.97Zm27.11-905.53c-5.98,0-10.83-4.85-10.83-10.83s4.85-10.83,10.83-10.83,10.83,4.85,10.83,10.83-4.85,10.83-10.83,10.83Zm50.27,640.69c-7.68,0-13.91-6.23-13.91-13.91s6.23-13.91,13.91-13.91,13.91,6.23,13.91,13.91-6.23,13.91-13.91,13.91Zm13.49-809.05c0-9.18,7.44-16.62,16.62-16.62s16.62,7.44,16.62,16.62-7.44,16.62-16.62,16.62-16.62-7.44-16.62-16.62Zm33.24,546.25c0,6.74-5.46,12.2-12.2,12.2s-12.2-5.46-12.2-12.2,5.46-12.2,12.2-12.2,12.2,5.46,12.2,12.2Zm46.88,521.09c-39.37,0-71.28-31.91-71.28-71.28s31.91-71.28,71.28-71.28,71.28,31.91,71.28,71.28-31.91,71.28-71.28,71.28Zm54.13-309.62c-13.79,0-24.97-11.18-24.97-24.97s11.18-24.97,24.97-24.97,24.97,11.18,24.97,24.97-11.18,24.97-24.97,24.97Z"/>
  <path class="cls-4" d="M712.41,2996.22l-42.05,42.05c-25.02,25.03-65.6,25.03-90.62,0l-42.05-42.05c-8.09-8.77-17.58-15.57-27.84-20.38,10.26,4.81,19.75,11.61,27.84,20.38l42.05,42.05c25.02,25.03,65.6,25.03,90.62,0l42.05-42.05c7.41-8.04,16-14.43,25.28-19.15-9.28,4.71-17.87,11.11-25.29,19.14Z"/>
  <path class="cls-4" d="M421.16,2983.02l-48.07,32.91h0s48.07-32.91,48.07-32.91c21.64-14.82,47.75-18.94,71.73-13.15-23.98-5.8-50.09-1.67-71.73,13.14Z"/>
  <path class="cls-11" d="M278.92,2570.55v67.55c37.43-8.34,77.32-22.22,118.21-43.71-37.87-6.57-77.26-14.48-118.21-23.84Z"/>
  <path class="cls-11" d="M594.17,2425.57c13.75-17.36,27.35-35.98,40.73-55.95-138.25,40.02-258.06,48.39-355.99,42.01v44.93c88.17,5.74,194.1-.48,315.25-30.99Z"/>
  <path class="cls-11" d="M662.53,2325.92c52.87-88.61,101.53-200.2,142.13-340.18H278.92v390.54c104.39,6.8,233.66-3.16,383.61-50.36Z"/>
  <polygon class="cls-5" points="436.27 438.99 424.92 438.99 424.92 438.99 436.27 438.99 436.27 438.99"/>
  <path class="cls-5" d="M436.27,442.82h-11.35v36.59h11.35v-36.59Z"/>
  <polygon class="cls-5" points="624.48 438.99 825.18 438.99 825.18 438.99 813.83 438.99 624.48 438.99 624.48 438.99"/>
  <path class="cls-5" d="M624.48,442.82v36.59h200.7v-36.59h-200.7Z"/>
  <path class="cls-5" d="M436.27,438.99h-11.35v3.84h11.35v-3.84Z"/>
  <path class="cls-1" d="M436.27,438.99h-11.35v3.84h11.35v-3.84Z"/>
  <path class="cls-5" d="M624.48,438.99v3.84h200.7v-3.84h-200.7Z"/>
  <path class="cls-1" d="M624.48,438.99v3.84h200.7v-3.84h-200.7Z"/>
  <path class="cls-5" d="M424.92,479.41v3.84h11.35v-3.84h-11.35Z"/>
  <path class="cls-7" d="M424.92,479.41v3.84h11.35v-3.84h-11.35Z"/>
  <path class="cls-5" d="M624.48,479.41v3.84h200.7v-3.84h-200.7Z"/>
  <path class="cls-7" d="M624.48,479.41v3.84h200.7v-3.84h-200.7Z"/>
  <circle class="cls-10" cx="711.18" cy="1007.8" r="24.4" transform="translate(-261.53 249.33) rotate(-16.85)"/>
  <circle class="cls-10" cx="732.22" cy="1157.71" r="61.01"/>
  <circle class="cls-10" cx="877.38" cy="1086.33" r="21.35" transform="translate(-189.6 185.52) rotate(-10.9)"/>
  <path class="cls-10" d="M830.55,981.46c6.35,0,11.49-5.15,11.49-11.49s-5.15-11.49-11.49-11.49-11.49,5.15-11.49,11.49,5.15,11.49,11.49,11.49Z"/>
  <path class="cls-10" d="M525.31,775.24c6.35,0,11.49-5.15,11.49-11.49s-5.15-11.49-11.49-11.49-11.49,5.15-11.49,11.49,5.15,11.49,11.49,11.49Z"/>
  <circle class="cls-10" cx="513.82" cy="1180.25" r="43.45"/>
  <path class="cls-10" d="M574.21,969.96c-5.98,0-10.83,4.85-10.83,10.83s4.85,10.83,10.83,10.83,10.83-4.85,10.83-10.83-4.85-10.83-10.83-10.83Z"/>
  <circle class="cls-10" cx="812.94" cy="1386.8" r="43.09"/>
  <path class="cls-10" d="M646.81,1369.51c0,6.74,5.46,12.2,12.2,12.2s12.2-5.46,12.2-12.2-5.46-12.2-12.2-12.2-12.2,5.46-12.2,12.2Z"/>
  <circle class="cls-10" cx="654.59" cy="823.26" r="16.62" transform="translate(-123.42 115.48) rotate(-9.22)"/>
  <circle class="cls-10" cx="767.73" cy="787.76" r="35.5"/>
  <circle class="cls-10" cx="483.67" cy="1522.25" r="49.85" transform="translate(-545.72 300.97) rotate(-22.5)"/>
  <path class="cls-10" d="M624.48,1604.5c-7.68,0-13.91,6.23-13.91,13.91s6.23,13.91,13.91,13.91,13.91-6.23,13.91-13.91-6.23-13.91-13.91-13.91Z"/>
  <circle class="cls-10" cx="513.82" cy="1369.51" r="33.28"/>
  <circle class="cls-10" cx="772.21" cy="1556.01" r="24.97"/>
  <circle class="cls-10" cx="547.1" cy="1872.18" r="24.97"/>
  <circle class="cls-10" cx="718.09" cy="1819.31" r="71.28"/>
  <path class="cls-10" d="M471.21,1768.83c-6.88,0-12.46,5.58-12.46,12.46s5.58,12.46,12.46,12.46,12.46-5.58,12.46-12.46-5.58-12.46-12.46-12.46Z"/>
  <path class="cls-12" d="M90.71,2422.55v97.86s0,0,0,0v-97.86s0,0,0,0Z"/>
  <path class="cls-12" d="M594.17,2425.57c-121.15,30.51-227.08,36.73-315.25,30.99v113.99c40.95,9.36,80.34,17.27,118.21,23.84,65.14-34.23,132.8-87.74,197.04-168.82Z"/>
  <path class="cls-12" d="M90.71,2342.27v35.35s0,0,0,0v-35.35s0,0,0,0Z"/>
  <path class="cls-12" d="M634.91,2369.62c9.32-13.91,18.53-28.46,27.63-43.7-149.95,47.2-279.22,57.16-383.61,50.36v35.35c97.92,6.38,217.74-1.99,355.99-42.01Z"/>
  <polygon class="cls-3" points="373.1 3015.93 373.09 3015.93 342.48 3036.89 373.1 3015.93"/>
  <rect class="cls-5" x="437.98" y="356.22" width="83.74" height="16.18"/>
  <rect class="cls-3" x="437.98" y="356.22" width="83.74" height="16.18"/>
  <rect class="cls-5" x="534.78" y="356.22" width="83.74" height="16.18"/>
  <rect class="cls-3" x="534.78" y="356.22" width="83.74" height="16.18"/>
  <path class="cls-5" d="M624.48,502.34v-19.09h-188.21v19.09c0,49.31-76.27,97.02-157.14,159.23h188.21c80.87-62.21,157.14-109.92,157.14-159.23Z"/>
  <path class="cls-3" d="M624.48,502.34v-19.09h-188.21v19.09c0,49.31-76.27,97.02-157.14,159.23h188.21c80.87-62.21,157.14-109.92,157.14-159.23Z"/>
  <path class="cls-4" d="M278.92,1974c0-518.78,265.6-465.85,52.4-847-130.46-233.23,8.51-367.35,136.02-465.43h-188.21c-127.52,98.08-266.49,232.2-136.02,465.43,213.21,381.15-52.4,328.21-52.4,847v11.75h188.21v-11.75Z"/>
  <path class="cls-3" d="M278.92,1974c0-518.78,265.6-465.85,52.4-847-130.46-233.23,8.51-367.35,136.02-465.43h-188.21c-127.52,98.08-266.49,232.2-136.02,465.43,213.21,381.15-52.4,328.21-52.4,847v11.75h188.21v-11.75Z"/>
  <path class="cls-4" d="M342.48,3036.89c-10.08,6.91-20.9,12.06-32.07,15.52,11.17-3.46,21.99-8.61,32.07-15.52l30.61-20.96s0,0,0,0l-30.61,20.96Z"/>
  <path class="cls-3" d="M342.48,3036.89c-10.08,6.91-20.9,12.06-32.07,15.52,11.17-3.46,21.99-8.61,32.07-15.52l30.61-20.96s0,0,0,0l-30.61,20.96Z"/>
  <path class="cls-4" d="M170.14,2998.55c-13.2-16.19-26.18-33.98-37.7-52.93,11.52,18.95,24.5,36.74,37.7,52.93Z"/>
  <path class="cls-3" d="M170.14,2998.55c-13.2-16.19-26.18-33.98-37.7-52.93,11.52,18.95,24.5,36.74,37.7,52.93Z"/>
  <path class="cls-11" d="M278.92,1985.74H90.72v356.52c48.17,14.97,111.47,29.01,188.21,34.01v-390.54Z"/>
  <path class="cls-3" d="M278.92,1985.74H90.72v356.52c48.17,14.97,111.47,29.01,188.21,34.01v-390.54Z"/>
  <path class="cls-11" d="M278.92,2638.1v-67.55c-59.38-13.57-122.05-30.17-188.21-50.14v116.14c43.23,12.23,110.38,18.89,188.21,1.55Z"/>
  <path class="cls-3" d="M278.92,2638.1v-67.55c-59.38-13.57-122.05-30.17-188.21-50.14v116.14c43.23,12.23,110.38,18.89,188.21,1.55Z"/>
  <path class="cls-11" d="M278.92,2411.63c-76.74-5-140.03-19.04-188.21-34.01v44.93c48.17,14.97,111.47,29.01,188.21,34.01v-44.93Z"/>
  <path class="cls-3" d="M278.92,2411.63c-76.74-5-140.03-19.04-188.21-34.01v44.93c48.17,14.97,111.47,29.01,188.21,34.01v-44.93Z"/>
  <path class="cls-5" d="M624.48,438.99h0v-19.22h-188.21v19.22h0s188.21,0,188.21,0Z"/>
  <path class="cls-3" d="M624.48,438.99h0v-19.22h-188.21v19.22h0s188.21,0,188.21,0Z"/>
  <path class="cls-5" d="M436.27,442.82v36.59h188.21v-36.59h-188.21Z"/>
  <path class="cls-3" d="M436.27,442.82v36.59h188.21v-36.59h-188.21Z"/>
  <path class="cls-5" d="M624.48,438.99h-188.21v3.84h188.21v-3.84Z"/>
  <path class="cls-1" d="M624.48,438.99h-188.21v3.84h188.21v-3.84Z"/>
  <path class="cls-3" d="M624.48,438.99h-188.21v3.84h188.21v-3.84Z"/>
  <path class="cls-5" d="M624.48,479.41h-188.21v3.84h188.21v-3.84Z"/>
  <path class="cls-7" d="M624.48,479.41h-188.21v3.84h188.21v-3.84Z"/>
  <path class="cls-3" d="M624.48,479.41h-188.21v3.84h188.21v-3.84Z"/>
  <path class="cls-12" d="M278.92,2456.56c-76.74-5-140.03-19.04-188.21-34.01v97.86c66.16,19.97,128.83,36.57,188.21,50.14v-113.99Z"/>
  <path class="cls-3" d="M278.92,2456.56c-76.74-5-140.03-19.04-188.21-34.01v97.86c66.16,19.97,128.83,36.57,188.21,50.14v-113.99Z"/>
  <path class="cls-12" d="M278.92,2376.28c-76.74-5-140.03-19.04-188.21-34.01v35.35c48.17,14.97,111.47,29.02,188.21,34.01v-35.35Z"/>
  <path class="cls-3" d="M278.92,2376.28c-76.74-5-140.03-19.04-188.21-34.01v35.35c48.17,14.97,111.47,29.02,188.21,34.01v-35.35Z"/>
  <path class="cls-8" d="M186.95,3018.26c-5.58-6.26-11.22-12.84-16.82-19.71,5.6,6.87,11.23,13.45,16.81,19.71,31.54,35.36,80.15,47.56,123.46,34.15-43.31,13.4-91.91,1.21-123.46-34.15Z"/>
  <path class="cls-8" d="M1159.39,1985.74v74.58s0,0,0,0v-86.33c0-344.51-117.13-436.9-133.39-571.71,16.26,134.81,133.38,227.2,133.38,571.7v11.75Z"/>
  <path class="cls-8" d="M1159.39,2140.61s0,0,0,0v-44.93s0,0,0,0v44.93Z"/>
  <path class="cls-8" d="M1159.39,2793.4v22.3c0,46.87-18.58,92.59-43.55,132.89,24.97-40.3,43.55-86.02,43.55-132.89v-337.9s0,0,0,0v315.6Z"/>
  <path class="cls-8" d="M940.16,3052.55c43.19,13.17,91.56,.94,122.99-34.29,6.43-7.21,12.93-14.85,19.37-22.86-6.43,8.01-12.94,15.65-19.37,22.86-31.43,35.23-79.79,47.46-122.99,34.29Z"/>
  <path class="cls-8" d="M90.72,2815.7v-179.15s0,0,0,0v179.15c0,45.72,17.68,90.36,41.73,129.92-24.05-39.57-41.73-84.2-41.73-129.92Z"/>
  <path class="cls-8" d="M915.24,619.6h0c6.88,5.19,13.95,10.46,21.14,15.84-7.19-5.38-14.26-10.66-21.14-15.84Z"/>
  <path class="cls-8" d="M956.01,650.17c.58,.44,1.16,.88,1.74,1.32-.58-.44-1.16-.88-1.74-1.32Z"/>
  <path class="cls-8" d="M948.73,644.69c.63,.47,1.26,.94,1.88,1.42-.63-.47-1.26-.95-1.88-1.42Z"/>
  <path class="cls-8" d="M963.01,655.48c.62,.47,1.24,.94,1.85,1.41-.62-.47-1.24-.94-1.85-1.41Z"/>
  <path class="cls-8" d="M758.43,2969.6c-7.15,1.62-14.12,4.11-20.73,7.47,6.62-3.36,13.58-5.85,20.73-7.47Z"/>
  <path class="cls-8" d="M509.85,2975.84c-5.47-2.56-11.15-4.56-16.96-5.96,5.81,1.41,11.49,3.4,16.96,5.96Z"/>
  <path class="cls-8" d="M1140.66,1053.49c66.34-188.81-56.21-304.63-169.69-391.92-.33-.25-.66-.5-.99-.76,.33,.25,.66,.5,.99,.76,113.48,87.29,236.02,203.11,169.69,391.92Z"/>
  <path class="cls-8" d="M941.46,639.23c.67,.5,1.34,1,2.01,1.51-.67-.5-1.34-1.01-2.01-1.51Z"/>
  <path class="cls-5" d="M970.97,661.57c-.33-.25-.66-.51-.99-.76-1.71-1.31-3.41-2.62-5.12-3.92-.62-.47-1.24-.94-1.85-1.41-1.76-1.34-3.51-2.67-5.26-3.99-.58-.44-1.16-.88-1.74-1.32-1.8-1.36-3.6-2.72-5.4-4.07-.63-.47-1.26-.95-1.88-1.42-1.76-1.32-3.51-2.64-5.26-3.95-.67-.5-1.34-1.01-2.01-1.51-1.7-1.27-3.39-2.54-5.07-3.8-7.19-5.38-14.26-10.65-21.14-15.84,.62,14.09,1.19,28.07,1.73,41.97h53.99Z"/>
  <path class="cls-8" d="M970.97,661.57c-.33-.25-.66-.51-.99-.76-1.71-1.31-3.41-2.62-5.12-3.92-.62-.47-1.24-.94-1.85-1.41-1.76-1.34-3.51-2.67-5.26-3.99-.58-.44-1.16-.88-1.74-1.32-1.8-1.36-3.6-2.72-5.4-4.07-.63-.47-1.26-.95-1.88-1.42-1.76-1.32-3.51-2.64-5.26-3.95-.67-.5-1.34-1.01-2.01-1.51-1.7-1.27-3.39-2.54-5.07-3.8-7.19-5.38-14.26-10.65-21.14-15.84,.62,14.09,1.19,28.07,1.73,41.97h53.99Z"/>
  <path class="cls-4" d="M970.97,661.57h-53.99c23.48,603.21-26.27,1027.46-112.32,1324.17h354.73v-11.75c0-344.51-117.13-436.89-133.38-571.7-8.23-68.2,9.36-147.25,80.99-275.29,14.36-25.68,25.46-50.15,33.67-73.51,66.33-188.81-56.21-304.64-169.69-391.92Zm-82.92,1086.46c-5.9,0-10.67-4.78-10.67-10.67s4.78-10.67,10.67-10.67,10.67,4.78,10.67,10.67-4.78,10.67-10.67,10.67Zm56.77-422.45c-5.63,0-10.2-4.57-10.2-10.2s4.57-10.2,10.2-10.2,10.2,4.57,10.2,10.2-4.57,10.2-10.2,10.2Z"/>
  <path class="cls-8" d="M970.97,661.57h-53.99c23.48,603.21-26.27,1027.46-112.32,1324.17h354.73v-11.75c0-344.51-117.13-436.89-133.38-571.7-8.23-68.2,9.36-147.25,80.99-275.29,14.36-25.68,25.46-50.15,33.67-73.51,66.33-188.81-56.21-304.64-169.69-391.92Zm-82.92,1086.46c-5.9,0-10.67-4.78-10.67-10.67s4.78-10.67,10.67-10.67,10.67,4.78,10.67,10.67-4.78,10.67-10.67,10.67Zm56.77-422.45c-5.63,0-10.2-4.57-10.2-10.2s4.57-10.2,10.2-10.2,10.2,4.57,10.2,10.2-4.57,10.2-10.2,10.2Z"/>
  <path class="cls-4" d="M1159.39,2793.4H278.92v22.3c0,75.76,48.54,148.55,94.17,200.23h0s48.07-32.91,48.07-32.91c21.64-14.82,47.75-18.94,71.73-13.14,5.81,1.4,11.49,3.4,16.96,5.96,10.26,4.81,19.75,11.61,27.84,20.38l42.05,42.05c25.02,25.03,65.6,25.03,90.62,0l42.05-42.05c7.41-8.04,16-14.43,25.29-19.14,6.61-3.36,13.58-5.85,20.73-7.47,23.64-5.37,49.24-1.15,70.51,13.42l78.68,53.87c10.22,7,21.2,12.2,32.54,15.66,43.19,13.17,91.56,.94,122.99-34.29,6.43-7.21,12.94-14.85,19.37-22.86,11.63-14.48,23.02-30.18,33.32-46.81,24.97-40.3,43.55-86.02,43.55-132.89v-22.3Zm-751.3,134.1c-20.65,0-37.39-16.74-37.39-37.39s16.74-37.39,37.39-37.39,37.39,16.74,37.39,37.39-16.74,37.39-37.39,37.39Zm104.76-60.59c-6.88,0-12.46-5.58-12.46-12.46s5.58-12.46,12.46-12.46,12.46,5.58,12.46,12.46-5.58,12.46-12.46,12.46Zm75.06,91.61c-6.63,0-12-5.37-12-12s5.37-12,12-12,12,5.37,12,12-5.37,12-12,12Zm47.12-70.68c-19.4,0-35.12-15.73-35.12-35.12s15.73-35.12,35.12-35.12,35.12,15.73,35.12,35.12-15.73,35.12-35.12,35.12Zm116.84,30.25c-12.27,0-22.21-9.94-22.21-22.21s9.94-22.21,22.21-22.21,22.21,9.94,22.21,22.21-9.94,22.21-22.21,22.21Zm68.38-51.64c-6.63,0-12.01-5.38-12.01-12.01s5.38-12.01,12.01-12.01,12.01,5.38,12.01,12.01-5.38,12.01-12.01,12.01Z"/>
  <path class="cls-8" d="M1159.39,2793.4H278.92v22.3c0,75.76,48.54,148.55,94.17,200.23h0s48.07-32.91,48.07-32.91c21.64-14.82,47.75-18.94,71.73-13.14,5.81,1.4,11.49,3.4,16.96,5.96,10.26,4.81,19.75,11.61,27.84,20.38l42.05,42.05c25.02,25.03,65.6,25.03,90.62,0l42.05-42.05c7.41-8.04,16-14.43,25.29-19.14,6.61-3.36,13.58-5.85,20.73-7.47,23.64-5.37,49.24-1.15,70.51,13.42l78.68,53.87c10.22,7,21.2,12.2,32.54,15.66,43.19,13.17,91.56,.94,122.99-34.29,6.43-7.21,12.94-14.85,19.37-22.86,11.63-14.48,23.02-30.18,33.32-46.81,24.97-40.3,43.55-86.02,43.55-132.89v-22.3Zm-751.3,134.1c-20.65,0-37.39-16.74-37.39-37.39s16.74-37.39,37.39-37.39,37.39,16.74,37.39,37.39-16.74,37.39-37.39,37.39Zm104.76-60.59c-6.88,0-12.46-5.58-12.46-12.46s5.58-12.46,12.46-12.46,12.46,5.58,12.46,12.46-5.58,12.46-12.46,12.46Zm75.06,91.61c-6.63,0-12-5.37-12-12s5.37-12,12-12,12,5.37,12,12-5.37,12-12,12Zm47.12-70.68c-19.4,0-35.12-15.73-35.12-35.12s15.73-35.12,35.12-35.12,35.12,15.73,35.12,35.12-15.73,35.12-35.12,35.12Zm116.84,30.25c-12.27,0-22.21-9.94-22.21-22.21s9.94-22.21,22.21-22.21,22.21,9.94,22.21,22.21-9.94,22.21-22.21,22.21Zm68.38-51.64c-6.63,0-12.01-5.38-12.01-12.01s5.38-12.01,12.01-12.01,12.01,5.38,12.01,12.01-5.38,12.01-12.01,12.01Z"/>
  <path class="cls-11" d="M1159.39,2060.33v-74.58h-354.73c-40.59,139.98-89.26,251.57-142.13,340.18,147.05-46.28,313.99-128.37,496.86-265.6Z"/>
  <path class="cls-8" d="M1159.39,2060.33v-74.58h-354.73c-40.59,139.98-89.26,251.57-142.13,340.18,147.05-46.28,313.99-128.37,496.86-265.6Z"/>
  <path class="cls-11" d="M1159.39,2140.61v-44.93c-194.42,145.89-370.83,229.47-524.48,273.94-13.38,19.97-26.98,38.59-40.73,55.95,162.93-41.03,353.39-126.01,565.22-284.97Z"/>
  <path class="cls-8" d="M1159.39,2140.61v-44.93c-194.42,145.89-370.83,229.47-524.48,273.94-13.38,19.97-26.98,38.59-40.73,55.95,162.93-41.03,353.39-126.01,565.22-284.97Z"/>
  <path class="cls-11" d="M1159.39,2477.8c-134.1,106.74-365.26,185.45-762.26,116.59-40.89,21.49-80.78,35.37-118.21,43.71v155.29h880.47v-315.6Z"/>
  <path class="cls-8" d="M1159.39,2477.8c-134.1,106.74-365.26,185.45-762.26,116.59-40.89,21.49-80.78,35.37-118.21,43.71v155.29h880.47v-315.6Z"/>
  <path class="cls-10" d="M944.82,1305.19c-5.63,0-10.2,4.57-10.2,10.2s4.57,10.2,10.2,10.2,10.2-4.57,10.2-10.2-4.57-10.2-10.2-10.2Z"/>
  <path class="cls-8" d="M944.82,1305.19c-5.63,0-10.2,4.57-10.2,10.2s4.57,10.2,10.2,10.2,10.2-4.57,10.2-10.2-4.57-10.2-10.2-10.2Z"/>
  <path class="cls-10" d="M888.05,1726.68c-5.9,0-10.67,4.78-10.67,10.67s4.78,10.67,10.67,10.67,10.67-4.78,10.67-10.67-4.78-10.67-10.67-10.67Z"/>
  <path class="cls-8" d="M888.05,1726.68c-5.9,0-10.67,4.78-10.67,10.67s4.78,10.67,10.67,10.67,10.67-4.78,10.67-10.67-4.78-10.67-10.67-10.67Z"/>
  <path class="cls-10" d="M512.85,2841.98c-6.88,0-12.46,5.58-12.46,12.46s5.58,12.46,12.46,12.46,12.46-5.58,12.46-12.46-5.58-12.46-12.46-12.46Z"/>
  <path class="cls-8" d="M512.85,2841.98c-6.88,0-12.46,5.58-12.46,12.46s5.58,12.46,12.46,12.46,12.46-5.58,12.46-12.46-5.58-12.46-12.46-12.46Z"/>
  <circle class="cls-10" cx="635.03" cy="2852.71" r="35.12" transform="translate(-448.75 138.56) rotate(-9.22)"/>
  <circle class="cls-8" cx="635.03" cy="2852.71" r="35.12" transform="translate(-448.75 138.56) rotate(-9.22)"/>
  <path class="cls-10" d="M820.25,2842.43c-6.63,0-12.01,5.38-12.01,12.01s5.38,12.01,12.01,12.01,12.01-5.38,12.01-12.01-5.38-12.01-12.01-12.01Z"/>
  <path class="cls-8" d="M820.25,2842.43c-6.63,0-12.01,5.38-12.01,12.01s5.38,12.01,12.01,12.01,12.01-5.38,12.01-12.01-5.38-12.01-12.01-12.01Z"/>
  <circle class="cls-10" cx="751.87" cy="2895.88" r="22.21" transform="translate(-454.16 157.83) rotate(-9.22)"/>
  <circle class="cls-8" cx="751.87" cy="2895.88" r="22.21" transform="translate(-454.16 157.83) rotate(-9.22)"/>
  <circle class="cls-10" cx="408.09" cy="2890.11" r="37.39" transform="translate(-1074.93 376.17) rotate(-22.5)"/>
  <circle class="cls-8" cx="408.09" cy="2890.11" r="37.39" transform="translate(-1074.93 376.17) rotate(-22.5)"/>
  <circle class="cls-10" cx="587.91" cy="2946.52" r="12"/>
  <circle class="cls-8" cx="587.91" cy="2946.52" r="12"/>
  <path class="cls-12" d="M594.17,2425.57c-64.24,81.08-131.91,134.59-197.04,168.82,397,68.86,628.16-9.85,762.26-116.59,0,0,0,0,0,0v-337.19s0,0,0,0c-211.83,158.96-402.29,243.93-565.22,284.97Z"/>
  <path class="cls-8" d="M594.17,2425.57c-64.24,81.08-131.91,134.59-197.04,168.82,397,68.86,628.16-9.85,762.26-116.59,0,0,0,0,0,0v-337.19s0,0,0,0c-211.83,158.96-402.29,243.93-565.22,284.97Z"/>
  <path class="cls-12" d="M662.53,2325.92c-9.09,15.24-18.31,29.8-27.63,43.7,153.65-44.48,330.07-128.05,524.48-273.94,0,0,0,0,0,0v-35.35s0,0,0,0c-182.87,137.23-349.8,219.31-496.86,265.6Z"/>
  <path class="cls-8" d="M662.53,2325.92c-9.09,15.24-18.31,29.8-27.63,43.7,153.65-44.48,330.07-128.05,524.48-273.94,0,0,0,0,0,0v-35.35s0,0,0,0c-182.87,137.23-349.8,219.31-496.86,265.6Z"/>
  <path class="cls-4" d="M373.09,3015.93c-45.63-51.68-94.17-124.47-94.17-200.23v-22.3H90.72v22.3c0,45.72,17.68,90.35,41.73,129.92,11.52,18.95,24.5,36.74,37.7,52.93,5.6,6.87,11.23,13.45,16.82,19.71,31.54,35.36,80.14,47.55,123.46,34.15,11.17-3.46,21.99-8.61,32.07-15.52l30.61-20.96Z"/>
  <path class="cls-3" d="M373.09,3015.93c-45.63-51.68-94.17-124.47-94.17-200.23v-22.3H90.72v22.3c0,45.72,17.68,90.35,41.73,129.92,11.52,18.95,24.5,36.74,37.7,52.93,5.6,6.87,11.23,13.45,16.82,19.71,31.54,35.36,80.14,47.55,123.46,34.15,11.17-3.46,21.99-8.61,32.07-15.52l30.61-20.96Z"/>
  <path class="cls-8" d="M373.09,3015.93c-45.63-51.68-94.17-124.47-94.17-200.23v-22.3H90.72v22.3c0,45.72,17.68,90.35,41.73,129.92,11.52,18.95,24.5,36.74,37.7,52.93,5.6,6.87,11.23,13.45,16.82,19.71,31.54,35.36,80.14,47.55,123.46,34.15,11.17-3.46,21.99-8.61,32.07-15.52l30.61-20.96Z"/>
  <path class="cls-11" d="M278.92,2793.4v-155.29c-77.83,17.34-144.98,10.68-188.21-1.55v156.85h188.21Z"/>
  <path class="cls-3" d="M278.92,2793.4v-155.29c-77.83,17.34-144.98,10.68-188.21-1.55v156.85h188.21Z"/>
  <path class="cls-8" d="M278.92,2793.4v-155.29c-77.83,17.34-144.98,10.68-188.21-1.55v156.85h188.21Z"/>
  <path class="cls-6" d="M437.98,349.64v2.89h83.74v-2.89h13.06v2.89h83.74v-2.89h13.06v2.89h83.74v-2.89h13.06v2.89h83.74v-2.89h13.06V165.56c0-18.97-15.38-34.34-34.34-34.34H459.26c-18.97,0-34.34,15.38-34.34,34.34v184.08h13.06Zm356.76-171.84h18.52v164.21h-18.52V177.8Zm-51.13,0h18.52v164.21h-18.52V177.8Zm-51.13,0h18.52v164.21h-18.52V177.8Zm-51.13,0h18.52v164.21h-18.52V177.8Zm-51.13,0h18.52v164.21h-18.52V177.8Zm-51.13,0h18.52v164.21h-18.52V177.8Zm-51.13,0h18.52v164.21h-18.52V177.8Zm-51.13,0h18.52v164.21h-18.52V177.8Z"/>
  <polygon class="cls-6" points="825.18 416.09 825.18 376.09 812.12 376.09 728.38 376.09 715.32 376.09 631.58 376.09 618.52 376.09 534.78 376.09 521.72 376.09 437.98 376.09 424.92 376.09 424.92 416.09 825.18 416.09"/>
  <rect class="cls-6" x="424.92" y="356.22" width="13.06" height="16.18"/>
  <rect class="cls-6" x="424.92" y="349.64" width="13.06" height="2.89"/>
  <rect class="cls-6" x="521.72" y="356.22" width="13.06" height="16.18"/>
  <rect class="cls-6" x="521.72" y="349.64" width="13.06" height="2.89"/>
  <rect class="cls-6" x="618.52" y="356.22" width="13.06" height="16.18"/>
  <rect class="cls-6" x="618.52" y="349.64" width="13.06" height="2.89"/>
  <rect class="cls-6" x="715.32" y="356.22" width="13.06" height="16.18"/>
  <rect class="cls-6" x="715.32" y="349.64" width="13.06" height="2.89"/>
  <rect class="cls-6" x="812.12" y="356.22" width="13.06" height="16.18"/>
  <rect class="cls-6" x="812.12" y="349.64" width="13.06" height="2.89"/>
  <polygon class="cls-6" points="437.98 376.09 521.72 376.09 534.78 376.09 618.52 376.09 631.58 376.09 715.32 376.09 728.38 376.09 812.12 376.09 825.18 376.09 825.18 372.4 812.12 372.4 728.38 372.4 715.32 372.4 631.58 372.4 618.52 372.4 534.78 372.4 521.72 372.4 437.98 372.4 424.92 372.4 424.92 376.09 437.98 376.09"/>
  <polygon class="cls-1" points="437.98 376.09 521.72 376.09 534.78 376.09 618.52 376.09 631.58 376.09 715.32 376.09 728.38 376.09 812.12 376.09 825.18 376.09 825.18 372.4 812.12 372.4 728.38 372.4 715.32 372.4 631.58 372.4 618.52 372.4 534.78 372.4 521.72 372.4 437.98 372.4 424.92 372.4 424.92 376.09 437.98 376.09"/>
  <polygon class="cls-6" points="813.83 419.77 825.18 419.77 825.18 416.09 424.92 416.09 424.92 419.77 436.27 419.77 624.48 419.77 813.83 419.77"/>
  <polygon class="cls-2" points="813.83 419.77 825.18 419.77 825.18 416.09 424.92 416.09 424.92 419.77 436.27 419.77 624.48 419.77 813.83 419.77"/>
  <polygon class="cls-6" points="437.98 356.22 521.72 356.22 534.78 356.22 618.52 356.22 631.58 356.22 715.32 356.22 728.38 356.22 812.12 356.22 825.18 356.22 825.18 352.53 812.12 352.53 728.38 352.53 715.32 352.53 631.58 352.53 618.52 352.53 534.78 352.53 521.72 352.53 437.98 352.53 424.92 352.53 424.92 356.22 437.98 356.22"/>
  <polygon class="cls-2" points="437.98 356.22 521.72 356.22 534.78 356.22 618.52 356.22 631.58 356.22 715.32 356.22 728.38 356.22 812.12 356.22 825.18 356.22 825.18 352.53 812.12 352.53 728.38 352.53 715.32 352.53 631.58 352.53 618.52 352.53 534.78 352.53 521.72 352.53 437.98 352.53 424.92 352.53 424.92 356.22 437.98 356.22"/>
  <rect x="436.85" y="177.8" width="18.52" height="164.21"/>
  <rect x="487.97" y="177.8" width="18.52" height="164.21"/>
  <rect x="539.1" y="177.8" width="18.52" height="164.21"/>
  <rect x="590.23" y="177.8" width="18.52" height="164.21"/>
  <rect x="641.36" y="177.8" width="18.52" height="164.21"/>
  <rect x="692.49" y="177.8" width="18.52" height="164.21"/>
  <rect x="743.61" y="177.8" width="18.52" height="164.21"/>
  <rect x="794.74" y="177.8" width="18.52" height="164.21"/>
</svg>