<?xml version="1.0" encoding="iso-8859-1"?>
<!-- Generator: Adobe Illustrator 19.0.0, SVG Export Plug-In . SVG Version: 6.00 Build 0)  -->
<svg version="1.1" id="Layer_1" xmlns="http://www.w3.org/2000/svg" xmlns:xlink="http://www.w3.org/1999/xlink" x="0px" y="0px"
	 viewBox="0 0 512.001 512.001" style="enable-background:new 0 0 512.001 512.001;" xml:space="preserve">
<path style="fill:#48AEE2;" d="M352.419,212.754H159.583c-14.634,0-24.286-15.3-17.974-28.51l53.122-111.161
	c3.309-6.923,10.3-11.331,17.974-11.331h86.593c7.673,0,14.664,4.408,17.974,11.331l53.122,111.161
	C376.702,197.448,367.059,212.754,352.419,212.754z"/>
<path style="fill:#39A3DB;" d="M370.393,184.244L317.271,73.082c-3.31-6.923-10.3-11.331-17.974-11.331H256v151.003h96.419
	C367.052,212.754,376.705,197.454,370.393,184.244z"/>
<path style="fill:#3797D3;" d="M319.218,512H192.784c-29.291,0-53.122-23.83-53.122-53.122V192.834
	c0-11.002,8.919-19.921,19.921-19.921h192.836c11.002,0,19.921,8.919,19.921,19.921v266.045C372.339,488.17,348.509,512,319.218,512
	z"/>
<path style="fill:#4881C2;" d="M352.419,172.913H256v339.089h63.218c29.291,0,53.122-23.83,53.122-53.122V192.834
	C372.339,181.832,363.42,172.913,352.419,172.913z"/>
<path style="fill:#3797D3;" d="M307.104,101.593H204.897c-11.002,0-19.921-8.919-19.921-19.921V19.921
	C184.976,8.919,193.895,0,204.897,0h102.208c11.002,0,19.921,8.919,19.921,19.921v61.751
	C327.025,92.674,318.106,101.593,307.104,101.593z"/>
<path style="fill:#4881C2;" d="M307.104,0h-51.103v101.593h51.103c11.002,0,19.921-8.919,19.921-19.921V19.921
	C327.025,8.919,318.106,0,307.104,0z"/>
<path style="fill:#65C6BB;" d="M372.339,440.068H139.662V244.845h232.678V440.068z"/>
<rect x="255.995" y="244.852" style="fill:#57BDB7;" width="116.337" height="195.223"/>
<path style="fill:#48AEE2;" d="M295.577,356.945c0,21.857-17.719,39.576-39.576,39.576c-21.857,0-39.576-17.719-39.576-39.576
	c0-16.003,21.214-46.106,32.578-61.083c3.517-4.635,10.477-4.635,13.994,0C274.362,310.838,295.577,340.942,295.577,356.945z"/>
<path style="fill:#39A3DB;" d="M262.997,295.861c-1.758-2.317-4.377-3.475-6.996-3.475v104.136
	c21.857,0,39.576-17.719,39.576-39.576C295.577,340.942,274.362,310.84,262.997,295.861z"/>
<g>
</g>
<g>
</g>
<g>
</g>
<g>
</g>
<g>
</g>
<g>
</g>
<g>
</g>
<g>
</g>
<g>
</g>
<g>
</g>
<g>
</g>
<g>
</g>
<g>
</g>
<g>
</g>
<g>
</g>
</svg>
